<svg width="760" height="360" viewBox="0 0 760 360" fill="none" xmlns="http://www.w3.org/2000/svg">
  <defs>
    <radialGradient id="glow" cx="0" cy="0" r="1" gradientUnits="userSpaceOnUse" gradientTransform="translate(470 235) rotate(90) scale(122 250)">
      <stop stop-color="#EF4058" stop-opacity=".34"/><stop offset="1" stop-color="#EF4058" stop-opacity="0"/>
    </radialGradient>
    <linearGradient id="feather" x1="250" y1="50" x2="535" y2="235" gradientUnits="userSpaceOnUse">
      <stop stop-color="#FFF" stop-opacity=".96"/><stop offset=".6" stop-color="#DADCE2" stop-opacity=".82"/><stop offset="1" stop-color="#A5A8B0" stop-opacity=".48"/>
    </linearGradient>
    <linearGradient id="cork" x1="480" y1="205" x2="580" y2="292" gradientUnits="userSpaceOnUse">
      <stop stop-color="#D8DADF"/><stop offset=".42" stop-color="#878991"/><stop offset="1" stop-color="#27282D"/>
    </linearGradient>
    <filter id="blur"><feGaussianBlur stdDeviation="16"/></filter>
    <filter id="shadow" x="-40%" y="-40%" width="180%" height="180%"><feDropShadow dx="0" dy="20" stdDeviation="18" flood-color="#000" flood-opacity=".68"/></filter>
  </defs>
  <ellipse cx="475" cy="238" rx="245" ry="112" fill="url(#glow)" filter="url(#blur)"/>
  <g opacity=".8">
    <path d="M180 290L575 250" stroke="#EF4058" stroke-opacity=".42" stroke-width="2"/>
    <path d="M245 320L590 270" stroke="#EF4058" stroke-opacity=".18"/>
    <circle cx="520" cy="254" r="3" fill="#FF6B7E"/><circle cx="400" cy="290" r="2" fill="#EF4058"/><circle cx="595" cy="220" r="2" fill="#EF4058"/>
  </g>
  <g transform="rotate(24 430 190)" filter="url(#shadow)">
    <path d="M208 70L463 177L420 231L185 92Z" fill="url(#feather)" fill-opacity=".28" stroke="#F7F8FB" stroke-opacity=".8" stroke-width="2"/>
    <path d="M228 64L458 180" stroke="#FAFBFF" stroke-opacity=".72" stroke-width="6"/>
    <path d="M192 94L432 206" stroke="#FAFBFF" stroke-opacity=".58" stroke-width="5"/>
    <path d="M260 58L466 179" stroke="#FAFBFF" stroke-opacity=".64" stroke-width="5"/>
    <path d="M300 66L467 181" stroke="#FAFBFF" stroke-opacity=".58" stroke-width="4"/>
    <path d="M342 82L466 184" stroke="#FAFBFF" stroke-opacity=".52" stroke-width="4"/>
    <path d="M382 105L462 190" stroke="#FAFBFF" stroke-opacity=".5" stroke-width="4"/>
    <path d="M214 75L190 94M255 60L219 110M300 67L251 126M344 83L292 147M386 108L337 166" stroke="#FFFFFF" stroke-opacity=".32" stroke-width="2"/>
    <path d="M420 231C443 194 460 176 480 178C498 180 513 195 520 214C527 232 521 247 506 257C489 269 465 264 446 251L420 231Z" fill="#D9DADF" stroke="#F8F8FA" stroke-opacity=".64"/>
    <ellipse cx="527" cy="240" rx="58" ry="48" fill="url(#cork)"/>
    <ellipse cx="541" cy="228" rx="33" ry="26" fill="#B6B8BF" fill-opacity=".32"/>
  </g>
</svg>
